<svg width="137" height="80" viewBox="0 0 137 80" fill="none" xmlns="http://www.w3.org/2000/svg">
<g clip-path="url(#clip0_169_917)">
<path d="M19.4413 79.2695V62.3373H24.5061C38.0857 62.3373 49.6394 58.3703 49.6394 41.0863C49.6394 23.8024 36.9413 20.4541 24.5061 20.4541H0V79.2695H19.4413Z" fill="#C542D0"/>
<path d="M27.4259 49.5121V43.6336H33.2706V38.5221H27.4259V32.6436H22.3102V38.5221H16.4316V43.6336H22.3102V49.5121H27.4259Z" fill="white"/>
<path d="M52.9411 20.361L56.3445 1.05111L50.3812 0L41.9766 3.50087L43.0531 8.88779L48.173 6.59485L45.9648 19.1276L52.9411 20.361Z" fill="#00C8C6"/>
<path d="M61.1385 60.3071C62.7406 61.8584 64.9742 62.6213 67.8647 62.6213C73.5398 62.6213 77.011 59.3366 77.011 53.5809C77.011 47.8252 73.6204 44.5405 67.8647 44.5405C62.109 44.5405 58.748 47.9058 58.748 53.5809C58.748 56.4969 59.5364 58.7559 61.1385 60.3071ZM64.8979 57.2852C64.3723 56.1536 64.1604 54.7634 64.1604 53.5809C64.1604 51.2159 64.8979 47.9312 67.8647 47.9312C70.8315 47.9312 71.5944 51.1354 71.5944 53.5809C71.5944 56.0264 70.9375 59.2306 67.8647 59.2306C66.394 59.2306 65.4489 58.4168 64.8936 57.2852H64.8979ZM84.1611 62.3288V54.8905C84.1611 53.5512 84.5553 52.106 86.1319 52.106C87.7086 52.106 87.8146 53.4453 87.8146 54.6532V62.3246H92.6759V53.4961C92.6759 50.4742 91.2307 48.7916 88.1579 48.7916C86.3693 48.7916 84.6612 49.5545 83.8475 51.2371L83.7966 49.0544H79.198C79.304 49.9995 79.304 50.9743 79.304 51.9195V62.3246H84.1654L84.1611 62.3288ZM99.5844 54.4455C99.665 53.0808 100.322 51.2922 102.106 51.2922C103.891 51.2922 104.158 53.0808 104.158 54.4455H99.5844ZM108.337 56.7851V55.9713C108.337 51.7923 106.629 48.7958 102.03 48.7958C98.0078 48.7958 94.8544 51.2922 94.8544 55.628C94.8544 60.3326 98.1137 62.617 102.632 62.617C104.183 62.617 105.967 62.4348 107.65 61.8796L107.493 58.989C106.26 59.6205 104.709 59.7773 103.577 59.7773C101.712 59.7773 99.7412 58.989 99.6099 56.7808H108.332L108.337 56.7851Z" fill="#00C8C6"/>
<path d="M64.6302 23.7348H66.1814C67.8641 23.7348 69.7035 24.0781 69.7035 26.1803C69.7035 28.5199 67.8132 28.8886 65.9187 28.8886H64.6302V23.7391V23.7348ZM64.6557 37.9756V32.1437H67.2029C71.721 32.1437 74.8743 30.2788 74.8743 26.1507C74.8743 22.4464 72.2719 20.4501 66.885 20.4501H59.5781V37.9756H64.6514H64.6557ZM81.8167 37.9756V32.5082C81.8167 30.4865 82.8169 28.5665 85.1014 28.5665C85.4956 28.5665 85.8897 28.5665 86.2839 28.7488L86.4153 24.5443C86.072 24.4384 85.7329 24.413 85.3896 24.413C83.4696 24.413 82.2108 25.8074 81.4988 27.3289L81.4479 24.7266H76.8493C76.9553 25.6717 76.9553 26.6169 76.9553 27.5663V37.9714H81.8167V37.9756ZM95.9261 31.9063V32.4573C95.9261 34.034 95.1886 35.5047 93.4043 35.5047C92.5354 35.5047 91.5394 35.1105 91.5394 33.8221C91.5394 32.2454 93.3534 31.9021 94.8496 31.9021H95.9261V31.9063ZM100.656 37.9756C100.55 37.1068 100.55 36.3184 100.55 34.6655V29.7533C100.55 25.4429 97.2908 24.4469 93.5357 24.4469C91.8785 24.4469 90.0391 24.7605 88.4624 25.2606L88.6192 28.2317C89.9077 27.5239 91.4292 27.1806 92.7728 27.1806C94.5063 27.1806 95.9261 27.7061 95.9261 29.4142V29.7278C95.2946 29.6473 94.43 29.6219 93.7985 29.6219C90.3018 29.6219 87.0171 30.5925 87.0171 34.1399C87.0171 37.0051 89.1448 38.2638 91.6157 38.2638C93.7179 38.2638 95.1123 37.4501 96.0321 36.1108L96.1126 37.9756H100.66H100.656ZM106.882 37.9756L109.485 33.1143L112.032 37.9756H117.236L112.82 31.0375L116.787 24.7054H111.845L109.794 29.1726L107.535 24.7054H102.36L106.382 31.0375L101.915 37.9756H106.882ZM123.619 22.5778V19.2422H118.758V22.5778H123.619ZM123.619 37.9756V24.7054H118.758V37.9756H123.619ZM125.904 37.5815C127.506 38.0265 129.138 38.2638 130.791 38.2638C133.338 38.2638 136.991 37.4501 136.991 33.7712C136.991 29.198 130.553 30.2746 130.553 28.3843C130.553 27.3332 131.736 27.1764 132.55 27.1764C133.863 27.1764 135.126 27.4137 136.36 27.8587L136.517 24.9682C135.071 24.6249 133.707 24.4172 132.232 24.4172C129.604 24.4172 126.056 25.2861 126.056 28.5708C126.056 33.038 132.469 31.6732 132.469 34.1399C132.469 35.191 131.393 35.5047 130.447 35.5047C129.053 35.5047 127.294 35.191 126.061 34.5341L125.904 37.5815Z" fill="#C542D0"/>
</g>
<defs>
<clipPath id="clip0_169_917">
<rect width="137" height="79.2696" fill="white"/>
</clipPath>
</defs>
</svg>
